<svg width="14462" height="2986" viewBox="0 0 14462 2986" fill="none" xmlns="http://www.w3.org/2000/svg">
<rect x="2946.58" y="1769.29" width="558" height="1082.55" transform="rotate(175.31 2946.58 1769.29)" fill="white"/>
<rect x="3192.92" y="2450.97" width="558" height="858.884" transform="rotate(161.39 3192.92 2450.97)" fill="white"/>
<rect x="3655.84" y="2366.15" width="558" height="858.884" transform="rotate(108.122 3655.84 2366.15)" fill="white"/>
<rect x="3677.81" y="1891" width="558" height="858.884" transform="rotate(44.0162 3677.81 1891)" fill="white"/>
<rect x="3713.41" y="1322" width="558" height="858.884" transform="rotate(12.1253 3713.41 1322)" fill="white"/>
<rect x="3620" y="638.424" width="558" height="858.884" transform="rotate(-5.59719 3620 638.424)" fill="white"/>
<rect width="389.78" height="2829.01" transform="matrix(0.98815 -0.153488 0.0617139 0.998094 9220 72.0391)" fill="white"/>
<path d="M10169.7 1042.05L10383.2 1495.28L9779.62 2835.35L9459.42 2490.84L10169.7 1042.05Z" fill="white"/>
<rect width="387.033" height="2803.79" transform="matrix(0.999886 0.0151204 -0.00604127 0.999982 10613.8 0)" fill="white"/>
<path d="M9922.7 1563.1L10184.9 1019.45L10910.5 2444.52L10597.1 2804.58L9922.7 1563.1Z" fill="white"/>
<rect x="6723.27" y="1111.78" width="469.172" height="1046.81" transform="rotate(-90 6723.27 1111.78)" fill="white"/>
<rect x="6181.98" y="1185.74" width="469.172" height="606.061" transform="rotate(-97.3448 6181.98 1185.74)" fill="white"/>
<rect x="6209.44" y="2824" width="469.172" height="1044.29" transform="rotate(-90 6209.44 2824)" fill="white"/>
<rect x="7247.28" y="2822.92" width="469.172" height="578.435" transform="rotate(-93.1154 7247.28 2822.92)" fill="white"/>
<rect x="6997.72" y="1976.83" width="469.172" height="1159.81" transform="rotate(-138.224 6997.72 1976.83)" fill="white"/>
<rect x="6605.78" y="2605.91" width="469.172" height="818.164" transform="rotate(-147.652 6605.78 2605.91)" fill="white"/>
<rect x="13359.5" y="1111.83" width="469.172" height="1046.81" transform="rotate(-90 13359.5 1111.83)" fill="white"/>
<rect x="12818.2" y="1185.79" width="469.172" height="606.061" transform="rotate(-97.3448 12818.2 1185.79)" fill="white"/>
<rect x="12845.6" y="2824.06" width="469.172" height="1044.29" transform="rotate(-90 12845.6 2824.06)" fill="white"/>
<rect x="13883.5" y="2822.98" width="469.172" height="578.435" transform="rotate(-93.1154 13883.5 2822.98)" fill="white"/>
<rect x="13633.9" y="1976.89" width="469.172" height="1159.81" transform="rotate(-138.224 13633.9 1976.89)" fill="white"/>
<rect x="13242" y="2605.97" width="469.172" height="818.164" transform="rotate(-147.652 13242 2605.97)" fill="white"/>
<rect x="251.001" y="834" width="525" height="754" transform="rotate(19.4444 251.001 834)" fill="white"/>
<rect y="1544.3" width="558" height="678" transform="rotate(-4.0384 0 1544.3)" fill="white"/>
<rect x="42" y="2221.38" width="558" height="678" transform="rotate(-40.4978 42 2221.38)" fill="white"/>
<rect x="485" y="2737.45" width="558" height="678" transform="rotate(-82.6795 485 2737.45)" fill="white"/>
<rect x="1155.38" y="2823.6" width="558" height="858.884" transform="rotate(-128.766 1155.38 2823.6)" fill="white"/>
<rect x="1155.38" y="2823.6" width="558" height="858.884" transform="rotate(-128.766 1155.38 2823.6)" fill="white"/>
<rect x="2098.8" y="2618.81" width="558" height="858.884" transform="rotate(138.96 2098.8 2618.81)" fill="white"/>
<rect x="1825.02" y="2283.58" width="558" height="858.884" transform="rotate(-172.342 1825.02 2283.58)" fill="white"/>
<rect x="1939" y="1433.87" width="558" height="858.884" transform="rotate(162.889 1939 1433.87)" fill="white"/>
<rect x="1682.97" y="613.431" width="558" height="858.884" transform="rotate(107.301 1682.97 613.431)" fill="white"/>
<rect x="861.476" y="358" width="558" height="774.122" transform="rotate(52.0586 861.476 358)" fill="white"/>
<path d="M4880.17 2005.23L4736 621H5601L5456.83 2005.23H4880.17ZM5168.5 2896C5044.62 2896 4943.17 2858.62 4864.15 2783.85C4785.12 2706.95 4745.61 2616.16 4745.61 2511.49C4745.61 2404.69 4785.12 2314.97 4864.15 2242.34C4943.17 2169.71 5044.62 2133.39 5168.5 2133.39C5294.51 2133.39 5395.96 2169.71 5472.85 2242.34C5551.88 2314.97 5591.39 2404.69 5591.39 2511.49C5591.39 2616.16 5551.88 2706.95 5472.85 2783.85C5395.96 2858.62 5294.51 2896 5168.5 2896Z" fill="white"/>
<path d="M11697.4 2004.89L11553.2 620.661H12418.2L12274 2004.89H11697.4ZM11985.7 2895.66C11861.8 2895.66 11760.4 2858.28 11681.3 2783.51C11602.3 2706.61 11562.8 2615.83 11562.8 2511.15C11562.8 2404.35 11602.3 2314.63 11681.3 2242C11760.4 2169.37 11861.8 2133.06 11985.7 2133.06C12111.7 2133.06 12213.2 2169.37 12290.1 2242C12369.1 2314.63 12408.6 2404.35 12408.6 2511.15C12408.6 2615.83 12369.1 2706.61 12290.1 2783.51C12213.2 2858.28 12111.7 2895.66 11985.7 2895.66Z" fill="white"/>
</svg>
